<?xml version="1.0" standalone="no"?>
<!DOCTYPE svg PUBLIC "-//W3C//DTD SVG 20010904//EN"
 "http://www.w3.org/TR/2001/REC-SVG-20010904/DTD/svg10.dtd">
<svg version="1.0" xmlns="http://www.w3.org/2000/svg"
 width="280.000000pt" height="280.000000pt" viewBox="0 0 280.000000 280.000000"
 preserveAspectRatio="xMidYMid meet">
<metadata>
Created by potrace 1.11, written by Peter Selinger 2001-2013
</metadata>
<g transform="translate(0.000000,280.000000) scale(0.100000,-0.100000)"
fill="#000000" stroke="none">
<path d="M1024 1723 c-91 -140 -117 -301 -80 -488 7 -37 34 -99 65 -150 29
-47 42 -60 61 -60 48 0 49 15 8 95 -56 111 -77 256 -55 390 8 49 51 166 66
180 14 12 28 46 24 57 -2 7 -11 9 -20 6 -12 -5 -14 -3 -8 8 7 12 6 12 -7 1
-11 -8 -17 -9 -20 -2 -2 6 -17 -11 -34 -37z"/>
<path d="M1162 1754 c-6 -11 4 -40 33 -98 23 -46 42 -90 43 -97 1 -8 4 -30 8
-49 4 -19 6 -78 6 -130 0 -108 -32 -226 -78 -294 -18 -26 -23 -41 -16 -44 7
-2 9 -9 5 -15 -4 -7 2 -5 12 3 14 11 17 11 11 1 -12 -19 35 -3 52 18 30 38 73
136 88 198 39 170 -2 391 -91 487 -13 14 -20 28 -16 32 3 4 -4 2 -16 -5 -27
-14 -36 -14 -28 -1 3 6 4 10 1 10 -3 0 -9 -7 -14 -16z"/>
<path d="M1433 1755 c-16 -12 -15 -17 19 -86 49 -97 60 -145 64 -259 4 -119
-7 -173 -57 -277 -37 -78 -44 -128 -14 -103 9 8 15 8 20 0 3 -5 11 -10 16 -10
6 0 8 4 5 9 -3 5 0 11 7 14 19 7 83 142 98 207 36 156 5 342 -77 464 -36 53
-52 62 -81 41z"/>
<path d="M1692 1753 c-12 -12 -8 -25 23 -84 20 -38 39 -79 41 -92 29 -121 33
-218 13 -317 -6 -34 -29 -95 -50 -137 -21 -42 -35 -81 -31 -87 15 -23 57 -12
81 23 32 46 77 148 87 196 16 79 8 255 -14 323 -24 75 -81 172 -100 172 -8 0
-10 5 -6 13 6 9 4 9 -8 -1 -9 -7 -18 -9 -20 -3 -1 5 -9 2 -16 -6z"/>
<path d="M430 1527 c-86 -45 -174 -91 -195 -103 -32 -17 -40 -27 -40 -48 0
-25 10 -33 85 -73 199 -105 320 -164 329 -159 5 3 8 20 7 38 -1 29 -8 36 -51
58 -28 14 -98 50 -157 80 l-108 55 155 78 c85 44 157 86 159 95 8 27 0 57 -15
59 -8 1 -84 -35 -169 -80z"/>
<path d="M2184 1596 c-18 -46 -3 -59 159 -141 l158 -80 -160 -80 c-158 -78
-161 -80 -161 -112 0 -17 5 -35 10 -38 6 -3 100 40 210 97 194 99 200 103 200
133 0 29 -6 34 -137 102 -294 152 -270 142 -279 119z"/>
</g>
</svg>
